<svg width="512" height="512" viewBox="0 0 512 512" fill="none" xmlns="http://www.w3.org/2000/svg">
  <rect width="512" height="512" fill="#F3F4F6"/>
  <path d="M396 325H379.36L354.64 242H366C368.76 242 371 239.76 371 237V227C371 224.24 368.76 222 366 222H313C310.24 222 308 224.24 308 227V237C308 239.76 310.24 242 313 242H334.36L343.28 269H276.72L252 207H263C265.76 207 268 204.76 268 202V192C268 189.24 265.76 187 263 187H210C207.24 187 205 189.24 205 192V202C205 204.76 207.24 207 210 207H231.28L238.44 222H116C113.24 222 111 224.24 111 227V237C111 239.76 113.24 242 116 242H146.72L152.92 255.44C142.6 260.72 136 271.64 136 284C136 302.76 151.24 318 170 318C185.36 318 198.28 308.08 202.4 294H272.6C276.72 308.08 289.64 318 305 318C320.36 318 333.28 308.08 337.4 294H396C398.76 294 401 291.76 401 289V279C401 276.24 398.76 274 396 274H333.68L341.64 294H356.36L368.72 325H354C349.6 325 346 328.6 346 333V343C346 347.4 349.6 351 354 351H396C400.4 351 404 347.4 404 343V333C404 328.6 400.4 325 396 325ZM170 298C162.28 298 156 291.72 156 284C156 276.28 162.28 270 170 270C177.72 270 184 276.28 184 284C184 291.72 177.72 298 170 298ZM305 298C297.28 298 291 291.72 291 284C291 276.28 297.28 270 305 270C312.72 270 319 276.28 319 284C319 291.72 312.72 298 305 298Z" fill="#00CC66"/>
  <path d="M156 270C156 267.5 156.5 265 157.5 262.5L171 284M156 270C156 267.5 156.5 265 157.5 262.5M156 270C156 265.5 157.5 261.5 159.5 258M157.5 262.5C160 257 164 252.5 169 250M184 270C184 265.5 182.5 261.5 180.5 258M184 270C184 267.5 183.5 265 182.5 262.5M184 270C184 276 181.5 281.5 177.5 285.5M182.5 262.5C180 257 176 252.5 171 250M182.5 262.5L170 284M171 250C165 246.5 157.5 248 153 254M171 250C177 253.5 181 262 177.5 269M177.5 285.5C174 289 169.5 291 164.5 291M177.5 285.5L161 272.5M164.5 291C159.5 291 155 289 151.5 285.5M164.5 291L158 279M151.5 285.5C148 282 145.5 276.5 145.5 270.5M151.5 285.5L158 279M145.5 270.5C145.5 264.5 147.5 259.5 151 255.5M145.5 270.5L156 278M151 255.5C154.5 251.5 159.5 249 165 249M151 255.5L153 254M165 249C170.5 249 175.5 251.5 179 255.5M165 249L171 250M179 255.5C182.5 259.5 184.5 264.5 184.5 270.5M179 255.5L177.5 269M184.5 270.5C184.5 276.5 182 282 178.5 285.5M184.5 270.5L177.5 269M178.5 285.5C175 289 170 291.5 164.5 291.5M178.5 285.5L177.5 285.5M164.5 291.5C159 291.5 154 289 150.5 285.5M164.5 291.5L164.5 291M150.5 285.5C147 282 144.5 276.5 144.5 270.5M150.5 285.5L151.5 285.5M144.5 270.5C144.5 264.5 146.5 259 150 255M144.5 270.5L145.5 270.5M150 255C153.5 251 158.5 248.5 164 248.5M150 255L151 255.5M164 248.5C170 248.5 175 251 178.5 255M164 248.5L165 249M178.5 255L179 255.5" stroke="#00CC66" strokeWidth="2.5"/>
  <path d="M311 290L301 280L296 285L291 280L285 285L279 280L274 285L268 280L262 285L257 280L251 285L241 275" stroke="#00CC66" strokeWidth="3"/>
</svg> 