<svg width="512" height="512" viewBox="0 0 512 512" fill="none" xmlns="http://www.w3.org/2000/svg">
  <rect width="512" height="512" fill="#F3F4F6"/>
  <path d="M396 325H379.36L354.64 242H366C368.76 242 371 239.76 371 237V227C371 224.24 368.76 222 366 222H313C310.24 222 308 224.24 308 227V237C308 239.76 310.24 242 313 242H334.36L343.28 269H276.72L252 207H263C265.76 207 268 204.76 268 202V192C268 189.24 265.76 187 263 187H210C207.24 187 205 189.24 205 192V202C205 204.76 207.24 207 210 207H231.28L238.44 222H116C113.24 222 111 224.24 111 227V237C111 239.76 113.24 242 116 242H146.72L152.92 255.44C142.6 260.72 136 271.64 136 284C136 302.76 151.24 318 170 318C185.36 318 198.28 308.08 202.4 294H272.6C276.72 308.08 289.64 318 305 318C320.36 318 333.28 308.08 337.4 294H396C398.76 294 401 291.76 401 289V279C401 276.24 398.76 274 396 274H333.68L341.64 294H356.36L368.72 325H354C349.6 325 346 328.6 346 333V343C346 347.4 349.6 351 354 351H396C400.4 351 404 347.4 404 343V333C404 328.6 400.4 325 396 325ZM170 298C162.28 298 156 291.72 156 284C156 276.28 162.28 270 170 270C177.72 270 184 276.28 184 284C184 291.72 177.72 298 170 298ZM305 298C297.28 298 291 291.72 291 284C291 276.28 297.28 270 305 270C312.72 270 319 276.28 319 284C319 291.72 312.72 298 305 298Z" fill="#333333"/>
  <rect x="310" y="210" width="80" height="50" fill="#333333"/>
  <rect x="340" y="185" width="20" height="25" fill="#333333"/>
  <path d="M305 270L340 180" stroke="#333333" strokeWidth="4"/>
  <rect x="255" y="265" width="90" height="5" fill="#333333"/>
</svg> 